<svg width="44" height="43" viewBox="0 0 44 43" fill="none" xmlns="http://www.w3.org/2000/svg">
<path d="M37.5028 19.3846C38.7879 18.7101 39.8658 17.6884 40.6182 16.4316C41.3706 15.1748 41.7686 13.7314 41.7684 12.2596V6.33699C41.767 4.87698 41.1966 3.47718 40.1824 2.44469C39.1682 1.4122 37.7931 0.831358 36.3587 0.82959H31.2859C29.8515 0.831358 28.4764 1.4122 27.4622 2.44469C26.448 3.47718 25.8777 4.87698 25.8762 6.33699V12.2596C25.8775 13.7458 26.2844 15.2024 27.0515 16.467C27.8186 17.7316 28.9158 18.7544 30.2206 19.4214C28.8058 19.8197 27.5216 20.5963 26.5012 21.6705C25.4809 22.7447 24.7617 24.0773 24.4182 25.53L23.5531 23.5561C23.3073 22.9957 22.9073 22.5198 22.4015 22.1857C21.8957 21.8516 21.3057 21.6738 20.7028 21.6736H2.15497C1.84901 21.6735 1.54788 21.7513 1.27899 21.8999C1.0101 22.0485 0.781971 22.2631 0.615352 22.5243C0.448732 22.7855 0.34891 23.085 0.324965 23.3954C0.301021 23.7059 0.353713 24.0176 0.478249 24.302L7.47825 40.2776C7.72402 40.8381 8.12394 41.3142 8.62972 41.6485C9.1355 41.9827 9.72552 42.1608 10.3286 42.1613H39.0843C40.302 42.1589 41.4691 41.6655 42.3301 40.7892C43.1911 39.9128 43.6758 38.7249 43.6781 37.4855V27.466C43.6761 25.6123 43.0681 23.8121 41.9501 22.3489C40.832 20.8857 39.2674 19.8429 37.5028 19.3846ZM35.4903 20.2753C35.6937 20.2753 35.8939 20.2864 36.0929 20.3031V20.6493C36.0798 21.2627 35.8312 21.8465 35.4003 22.2756C34.9695 22.7047 34.3907 22.945 33.7879 22.945C33.1851 22.945 32.6062 22.7047 32.1754 22.2756C31.7445 21.8465 31.4959 21.2627 31.4828 20.6493V20.3365C31.7838 20.2962 32.087 20.2758 32.3906 20.2753H35.4936H35.4903ZM31.2859 1.98184H36.3576C37.4932 1.98301 38.582 2.44271 39.385 3.26004C40.188 4.07737 40.6396 5.18557 40.6407 6.34144V8.49008C40.0195 8.38403 39.4368 8.11308 38.9513 7.70456C38.4659 7.29604 38.0949 6.76441 37.8757 6.16332C37.8429 6.07718 37.7902 6.00039 37.722 5.93947C37.6537 5.87856 37.572 5.83533 37.4839 5.81346C37.3957 5.79159 37.3036 5.79174 37.2155 5.81389C37.1274 5.83604 37.0458 5.87953 36.9778 5.94066C36.9679 5.94957 35.9234 6.84131 33.8212 6.84131C31.719 6.84131 30.6723 5.95068 30.6647 5.94066C30.5966 5.87953 30.5151 5.83604 30.4269 5.81389C30.3388 5.79174 30.2468 5.79159 30.1586 5.81346C30.0704 5.83533 29.9887 5.87856 29.9205 5.93947C29.8522 6.00039 29.7995 6.07718 29.7667 6.16332C29.5477 6.7641 29.1769 7.2954 28.6916 7.70356C28.2063 8.11172 27.6237 8.38226 27.0028 8.48785V6.34144C27.0039 5.18557 27.4556 4.07737 28.2586 3.26004C29.0615 2.44271 30.1503 1.98301 31.2859 1.98184ZM27.0028 12.2596V9.65012C27.8778 9.52654 29.5392 9.04449 30.5257 7.21426C31.1459 7.55826 32.2429 7.99355 33.8212 7.99355C35.3995 7.99355 36.4965 7.55937 37.1178 7.21426C38.1022 9.04338 39.7647 9.5232 40.6407 9.64789V12.2596C40.6384 14.0798 39.927 15.8247 38.6626 17.1118C37.3981 18.3988 35.6838 19.1229 33.8956 19.1253H33.7479C31.9597 19.1229 30.2454 18.3988 28.9809 17.1118C27.7165 15.8247 27.0051 14.0798 27.0028 12.2596ZM25.3228 27.4671C25.3246 25.9217 25.8147 24.4178 26.7207 23.1777C27.6267 21.9376 28.9005 21.027 30.354 20.5803V20.6504C30.3459 21.1144 30.4286 21.5753 30.5974 22.0064C30.7662 22.4374 31.0177 22.8299 31.3372 23.1609C31.6566 23.4919 32.0377 23.7549 32.4581 23.9344C32.8785 24.1138 33.3298 24.2063 33.7857 24.2063C34.2415 24.2063 34.6929 24.1138 35.1133 23.9344C35.5336 23.7549 35.9147 23.4919 36.2342 23.1609C36.5536 22.8299 36.8051 22.4374 36.9739 22.0064C37.1427 21.5753 37.2254 21.1144 37.2173 20.6504V20.4979C38.7411 20.8915 40.0928 21.7904 41.0589 23.0528C42.0251 24.3152 42.5506 25.8691 42.5526 27.4693V30.0721H38.8514V26.4985C38.8514 26.3465 38.792 26.2006 38.6864 26.0931C38.5808 25.9856 38.4375 25.9252 38.2881 25.9252C38.1387 25.9252 37.9954 25.9856 37.8898 26.0931C37.7842 26.2006 37.7248 26.3465 37.7248 26.4985V36.0527H29.0262L25.3075 27.5751C25.3159 27.5396 25.3211 27.5035 25.3228 27.4671ZM27.9259 41.0179H10.3275C9.94234 41.0176 9.56554 40.9039 9.24243 40.6906C8.91933 40.4772 8.66371 40.1734 8.50637 39.8156L1.50747 23.8378C1.45932 23.7279 1.43892 23.6075 1.44814 23.4876C1.45736 23.3677 1.4959 23.252 1.56025 23.1511C1.6246 23.0502 1.71272 22.9673 1.81659 22.9099C1.92046 22.8525 2.03678 22.8224 2.15497 22.8225H20.7028C21.0881 22.8226 21.4651 22.9364 21.7883 23.1499C22.1114 23.3635 22.3669 23.6677 22.5239 24.0259L28.1403 36.8442V36.8531L29.5195 40.0015C29.5677 40.1112 29.5881 40.2314 29.579 40.3512C29.5698 40.471 29.5314 40.5866 29.4671 40.6874C29.4029 40.7882 29.3148 40.8711 29.2111 40.9284C29.1073 40.9858 28.9911 41.0158 28.8731 41.0157L27.9259 41.0179ZM39.0822 41.0179H30.5695C30.6665 40.7829 30.7151 40.5301 30.7121 40.2752C30.709 40.0203 30.6546 39.7687 30.552 39.5362L29.5282 37.1983H38.2881C38.4375 37.1983 38.5808 37.1379 38.6864 37.0303C38.792 36.9228 38.8514 36.777 38.8514 36.6249V31.2211H42.5548V37.4866C42.5536 38.423 42.1876 39.3207 41.537 39.9827C40.8864 40.6447 40.0043 41.017 39.0843 41.0179H39.0822Z" fill="#898989"/>
</svg>
