<svg width="48" height="47" viewBox="0 0 48 47" fill="none" xmlns="http://www.w3.org/2000/svg">
<path d="M39.4532 15.2869V13.8347C41.2819 12.759 42.4651 10.7689 42.4651 8.61754V6.03587C42.4651 2.70121 39.7759 0.0119629 36.4412 0.0119629C33.1066 0.0119629 30.3635 2.70121 30.3635 6.03587V8.61754C30.3635 10.7151 31.4392 12.6514 33.2679 13.7271V15.2869C32.4611 15.502 31.7082 15.8247 30.9552 16.255C29.7719 13.512 27.0289 11.5757 23.8556 11.5757C20.736 11.5757 18.1006 13.4044 16.8635 16.0936C16.1643 15.7709 15.4651 15.4482 14.7659 15.2869V13.8347C16.5946 12.759 17.7779 10.7689 17.7779 8.61754V6.03587C17.7779 2.70121 15.0886 0.0119629 11.754 0.0119629C8.41931 0.0119629 5.73007 2.70121 5.73007 6.03587V8.61754C5.73007 10.7151 6.80577 12.6514 8.63445 13.7271V15.2869C3.79382 16.6853 0.512939 21.0418 0.512939 26.0976C0.512939 26.5279 0.889433 26.9044 1.31971 26.9044H17.24C17.2938 26.9044 17.3476 26.9044 17.4014 26.9044C18.0468 27.9263 18.9611 28.7869 20.0368 29.4323V31.8526C13.6364 33.5737 9.27987 39.3287 9.27987 45.998C9.27987 46.4283 9.65637 46.8048 10.0866 46.8048H37.7858C38.2161 46.8048 38.5926 46.4283 38.5926 45.998C38.5926 39.3825 34.0209 33.5199 27.6743 31.8526V29.5399C28.8038 28.8944 29.7181 28.0339 30.4173 26.9582H46.9293C47.3596 26.9582 47.736 26.5817 47.736 26.1514C47.6823 21.0956 44.24 16.6315 39.4532 15.2869ZM2.12649 25.3446C2.44919 21.1494 5.46115 17.7072 9.60258 16.7391C9.97907 16.6315 10.248 16.3088 10.248 15.9323V13.243C10.248 12.9203 10.0866 12.6514 9.81772 12.5438C8.31174 11.7908 7.34362 10.2849 7.34362 8.61754V6.03587C7.34362 3.61555 9.33366 1.62551 11.754 1.62551C14.1743 1.62551 16.1643 3.61555 16.1643 6.03587V8.61754C16.1643 10.2849 15.1424 11.8446 13.6364 12.5976C13.3675 12.7052 13.1524 13.0279 13.1524 13.3506V15.9323C13.1524 16.3088 13.4213 16.6315 13.7978 16.7391C14.7121 16.9542 15.5727 17.2769 16.3795 17.7072C16.2719 18.245 16.2181 18.7829 16.2181 19.3745V22.8167C16.2181 23.6773 16.3795 24.5379 16.6484 25.3446H2.12649ZM26.491 28.3028C26.2221 28.4104 26.007 28.7331 26.007 29.0558V32.498C26.007 32.8745 26.2759 33.1972 26.6524 33.3048C32.3536 34.5418 36.5488 39.49 36.9253 45.245H10.8934C11.2161 39.49 15.3038 34.6494 21.005 33.3586C21.3815 33.251 21.6504 32.9283 21.6504 32.5518V29.002C21.6504 28.6793 21.489 28.4104 21.2201 28.3028C19.1225 27.2809 17.8317 25.1833 17.8317 22.8705V19.4283C17.8317 16.0399 20.5747 13.3506 23.9094 13.3506C27.244 13.3506 29.987 16.0936 29.987 19.4283V22.8167C29.987 25.1295 28.6424 27.2809 26.491 28.3028ZM31.1703 25.3446C31.4392 24.5379 31.6006 23.6773 31.6006 22.8167V19.3745C31.6006 18.8904 31.5468 18.3526 31.4392 17.9223C32.2998 17.3845 33.2679 17.008 34.236 16.7928C34.6125 16.6853 34.8815 16.3626 34.8815 15.9861V13.2968C34.8815 12.9741 34.7201 12.7052 34.4512 12.5976C32.9452 11.8446 31.9771 10.3387 31.9771 8.67133V6.08965C31.9771 3.66933 33.9671 1.67929 36.3874 1.67929C38.8078 1.67929 40.7978 3.66933 40.7978 6.08965V8.67133C40.7978 10.3387 39.7759 11.8984 38.2699 12.6514C38.001 12.759 37.7858 13.0817 37.7858 13.4044V15.9861C37.7858 16.3626 38.0548 16.6853 38.4313 16.7928C42.5727 17.7072 45.6384 21.257 46.0149 25.3984L31.1703 25.3446Z" fill="#898989"/>
</svg>
